<svg width="176" height="44" viewBox="0 0 176 44" fill="none" xmlns="http://www.w3.org/2000/svg">
<path d="M60.748 29.39C60.0027 29.39 59.2747 29.338 58.564 29.234C57.8533 29.1473 57.2033 28.9827 56.614 28.74C56.042 28.4973 55.5827 28.1507 55.236 27.7C54.8893 27.2493 54.716 26.6687 54.716 25.958V10.982H58.512V16.312C59.0147 16 59.5693 15.7833 60.176 15.662C60.8 15.5407 61.3113 15.48 61.71 15.48C63.634 15.48 65.1073 16.0693 66.13 17.248C67.1527 18.4093 67.664 20.1167 67.664 22.37C67.664 24.1207 67.3607 25.516 66.754 26.556C66.1647 27.5787 65.35 28.3067 64.31 28.74C63.27 29.1733 62.0827 29.39 60.748 29.39ZM60.696 26.166C61.8227 26.166 62.62 25.8367 63.088 25.178C63.556 24.5193 63.79 23.6613 63.79 22.604C63.79 21.1133 63.504 20.0733 62.932 19.484C62.3773 18.8773 61.658 18.574 60.774 18.574C60.4273 18.574 60.046 18.6173 59.63 18.704C59.214 18.7907 58.8413 18.9293 58.512 19.12V24.944C58.512 25.412 58.72 25.7327 59.136 25.906C59.5693 26.0793 60.0893 26.166 60.696 26.166ZM75.4012 29.39C74.3266 29.39 73.3559 29.26 72.4892 29C71.6226 28.7227 70.9292 28.2633 70.4092 27.622C69.8892 26.9633 69.6292 26.0533 69.6292 24.892C69.6292 23.6787 70.0106 22.708 70.7732 21.98C71.5359 21.2347 72.7232 20.862 74.3352 20.862C75.0112 20.862 75.6612 20.9487 76.2852 21.122C76.9266 21.2953 77.4726 21.5033 77.9232 21.746V20.914C77.9232 20.1167 77.6632 19.5447 77.1432 19.198C76.6406 18.834 75.9299 18.652 75.0112 18.652C74.2312 18.652 73.4512 18.7907 72.6712 19.068C71.8912 19.328 71.2759 19.6487 70.8252 20.03V16.598C71.2412 16.3207 71.9259 16.0607 72.8792 15.818C73.8499 15.5753 74.9159 15.454 76.0772 15.454C76.5799 15.454 77.1519 15.5147 77.7932 15.636C78.4519 15.74 79.0846 15.9567 79.6912 16.286C80.2979 16.598 80.7919 17.0573 81.1732 17.664C81.5719 18.2707 81.7712 19.068 81.7712 20.056L81.7452 26.27C81.7279 27.3967 81.1646 28.2027 80.0552 28.688C78.9459 29.156 77.3946 29.39 75.4012 29.39ZM73.4772 24.97C73.4772 25.49 73.6852 25.906 74.1012 26.218C74.5346 26.5127 75.0112 26.66 75.5312 26.66C76.4152 26.66 77.0306 26.5993 77.3772 26.478C77.7412 26.3567 77.9232 26.114 77.9232 25.75V23.722C77.2992 23.514 76.6319 23.41 75.9212 23.41C74.2919 23.41 73.4772 23.93 73.4772 24.97ZM85.6781 13.868V10.878H89.6821V13.868H85.6781ZM83.6761 34.018V30.872C85.0455 31.0107 85.7301 30.4213 85.7301 29.104V15.844H89.6041L89.6561 29.104C89.6561 30.352 89.3875 31.3313 88.8501 32.042C88.3301 32.77 87.6195 33.2813 86.7181 33.576C85.8168 33.8707 84.8028 34.018 83.6761 34.018ZM99.2946 29.39C97.4573 29.39 95.9666 28.9567 94.8226 28.09C93.6786 27.2233 93.1066 25.854 93.1066 23.982V15.844H96.9806V23.67C96.9806 24.502 97.1626 25.126 97.5266 25.542C97.908 25.9407 98.506 26.14 99.3206 26.14C100.135 26.14 100.725 25.9407 101.089 25.542C101.47 25.126 101.661 24.502 101.661 23.67V15.844H105.301V23.982C105.301 25.854 104.763 27.2233 103.689 28.09C102.614 28.9567 101.149 29.39 99.2946 29.39ZM113.792 29.39C112.717 29.39 111.747 29.26 110.88 29C110.013 28.7227 109.32 28.2633 108.8 27.622C108.28 26.9633 108.02 26.0533 108.02 24.892C108.02 23.6787 108.401 22.708 109.164 21.98C109.927 21.2347 111.114 20.862 112.726 20.862C113.402 20.862 114.052 20.9487 114.676 21.122C115.317 21.2953 115.863 21.5033 116.314 21.746V20.914C116.314 20.1167 116.054 19.5447 115.534 19.198C115.031 18.834 114.321 18.652 113.402 18.652C112.622 18.652 111.842 18.7907 111.062 19.068C110.282 19.328 109.667 19.6487 109.216 20.03V16.598C109.632 16.3207 110.317 16.0607 111.27 15.818C112.241 15.5753 113.307 15.454 114.468 15.454C114.971 15.454 115.543 15.5147 116.184 15.636C116.843 15.74 117.475 15.9567 118.082 16.286C118.689 16.598 119.183 17.0573 119.564 17.664C119.963 18.2707 120.162 19.068 120.162 20.056L120.136 26.27C120.119 27.3967 119.555 28.2027 118.446 28.688C117.337 29.156 115.785 29.39 113.792 29.39ZM111.868 24.97C111.868 25.49 112.076 25.906 112.492 26.218C112.925 26.5127 113.402 26.66 113.922 26.66C114.806 26.66 115.421 26.5993 115.768 26.478C116.132 26.3567 116.314 26.114 116.314 25.75V23.722C115.69 23.514 115.023 23.41 114.312 23.41C112.683 23.41 111.868 23.93 111.868 24.97ZM127.449 29H123.601V10.878H127.449V29ZM135.958 29.39C134.883 29.39 133.913 29.26 133.046 29C132.179 28.7227 131.486 28.2633 130.966 27.622C130.446 26.9633 130.186 26.0533 130.186 24.892C130.186 23.6787 130.567 22.708 131.33 21.98C132.093 21.2347 133.28 20.862 134.892 20.862C135.568 20.862 136.218 20.9487 136.842 21.122C137.483 21.2953 138.029 21.5033 138.48 21.746V20.914C138.48 20.1167 138.22 19.5447 137.7 19.198C137.197 18.834 136.487 18.652 135.568 18.652C134.788 18.652 134.008 18.7907 133.228 19.068C132.448 19.328 131.833 19.6487 131.382 20.03V16.598C131.798 16.3207 132.483 16.0607 133.436 15.818C134.407 15.5753 135.473 15.454 136.634 15.454C137.137 15.454 137.709 15.5147 138.35 15.636C139.009 15.74 139.641 15.9567 140.248 16.286C140.855 16.598 141.349 17.0573 141.73 17.664C142.129 18.2707 142.328 19.068 142.328 20.056L142.302 26.27C142.285 27.3967 141.721 28.2027 140.612 28.688C139.503 29.156 137.951 29.39 135.958 29.39ZM134.034 24.97C134.034 25.49 134.242 25.906 134.658 26.218C135.091 26.5127 135.568 26.66 136.088 26.66C136.972 26.66 137.587 26.5993 137.934 26.478C138.298 26.3567 138.48 26.114 138.48 25.75V23.722C137.856 23.514 137.189 23.41 136.478 23.41C134.849 23.41 134.034 23.93 134.034 24.97ZM145.767 16.962C146.2 16.7193 146.807 16.4853 147.587 16.26C148.384 16.0347 149.225 15.8527 150.109 15.714C151.01 15.558 151.833 15.48 152.579 15.48C154.347 15.48 155.716 15.8267 156.687 16.52C157.675 17.2133 158.169 18.4267 158.169 20.16V29H154.295V20.94C154.295 20.264 154.104 19.718 153.723 19.302C153.341 18.886 152.683 18.678 151.747 18.678C151.348 18.678 150.949 18.73 150.551 18.834C150.152 18.9207 149.849 19.016 149.641 19.12V29H145.767V16.962ZM166.655 29.39C164.869 29.3033 163.457 28.7313 162.417 27.674C161.394 26.6167 160.883 25.0047 160.883 22.838C160.883 20.8967 161.195 19.3973 161.819 18.34C162.443 17.2653 163.309 16.52 164.419 16.104C165.545 15.688 166.854 15.48 168.345 15.48C169.991 15.48 171.309 15.792 172.297 16.416C173.285 17.0227 173.779 17.8893 173.779 19.016V29.156C173.779 30.9933 173.189 32.3887 172.011 33.342C170.849 34.2953 169.203 34.772 167.071 34.772C165.909 34.772 164.913 34.694 164.081 34.538C163.266 34.382 162.642 34.1827 162.209 33.94V30.534C162.469 30.6553 162.85 30.794 163.353 30.95C163.855 31.1233 164.419 31.262 165.043 31.366C165.667 31.4873 166.291 31.548 166.915 31.548C168.111 31.548 168.917 31.3053 169.333 30.82C169.766 30.352 169.983 29.7453 169.983 29V28.272C169.567 28.6187 169.09 28.8873 168.553 29.078C168.015 29.286 167.383 29.39 166.655 29.39ZM167.643 26.478C168.527 26.478 169.307 26.2873 169.983 25.906V19.874C169.983 19.3193 169.766 18.964 169.333 18.808C168.899 18.6347 168.423 18.548 167.903 18.548C166.707 18.548 165.875 18.9293 165.407 19.692C164.956 20.4547 164.731 21.4253 164.731 22.604C164.731 23.8 164.999 24.7447 165.537 25.438C166.074 26.1313 166.776 26.478 167.643 26.478Z" fill="#F47C7C"/>
<circle cx="19.831" cy="19.6601" r="19.6601" fill="#F47C7C"/>
<path d="M48.3224 36.1769L26.9941 23.6994V22.7711C26.9941 21.7124 27.5926 20.7276 28.556 20.2011C30.7266 19.015 32.0167 16.7304 31.9231 14.239C31.7964 10.8712 29.0843 8.13275 25.749 8.00494C23.9841 7.93656 22.3128 8.57974 21.0428 9.81389C19.772 11.049 19.0721 12.7098 19.0721 14.4903C19.0721 15.3233 19.7411 15.9987 20.5662 15.9987C21.3914 15.9987 22.0604 15.3233 22.0604 14.4903C22.0604 13.5372 22.435 12.6483 23.1153 11.9872C23.7947 11.3269 24.6887 10.9823 25.6356 11.0195C27.4191 11.0879 28.8692 12.5523 28.937 14.3534C28.9872 15.6885 28.2961 16.9126 27.1336 17.5481C25.2044 18.6023 24.0059 20.6036 24.0059 22.7711V23.6994L2.6776 36.1769C1.02598 37.1431 0 38.9407 0 40.868C0 43.8575 6.05386 44 9.01465 44L9.06445 43.4972L44.2266 43.9986H44.4756C47.4364 43.9986 51 43.8573 51 40.8679C51 38.9406 49.974 37.1431 48.3224 36.1769ZM44.8242 43.4972L44.2266 43.9986L9.06445 43.4972C7.7514 43.4972 2.98828 42.1939 2.98828 40.8679C2.98828 40.013 3.4433 39.2156 4.17592 38.7872L25.5 26.3121L46.8241 38.7872C47.5566 39.2157 48.0117 40.013 48.0117 40.868C48.0117 42.194 46.1373 43.4972 44.8242 43.4972Z" fill="white"/>
</svg>
